<mxfile host="Electron" modified="2023-04-01T18:07:18.490Z" agent="Mozilla/5.0 (Macintosh; Intel Mac OS X 10_15_7) AppleWebKit/537.36 (KHTML, like Gecko) draw.io/21.1.2 Chrome/106.0.5249.199 Electron/21.4.3 Safari/537.36" etag="AGJckjuiJRwFuw5Mh9xk" version="21.1.2" type="device">
  <diagram name="Page-1" id="bIGYk8RWifxbF16uEL0C">
    <mxGraphModel dx="1224" dy="783" grid="1" gridSize="10" guides="1" tooltips="1" connect="1" arrows="1" fold="1" page="1" pageScale="1" pageWidth="827" pageHeight="1169" math="0" shadow="0">
      <root>
        <mxCell id="0" />
        <mxCell id="1" parent="0" />
      </root>
    </mxGraphModel>
  </diagram>
</mxfile>
